/* XPM */

static char	*walls[] = {
	"16 64 2 1",
	". c None",
	"Y c #FFFF00",
	"................",
	".......YY.......",
	".......YY.......",
	".....YY.........",
	".....YY.........",
	".....YY..YYYY...",
	".....YY..YYYY...",
	".YY....YY....YY.",
	".YY....YY....YY.",
	"...YYYY..YY.....",
	"...YYYY..YY.....",
	".........YY.....",
	".........YY.....",
	".......YY.......",
	".......YY.......",
	"................",
	"................",
	".........YY.....",
	".........YY.....",
	".......YY.......",
	".......YY.......",
	".YY....YY.......",
	".YY....YY.......",
	"...YYYYYYYYYY...",
	"...YYYYYYYYYY...",
	".......YY....YY.",
	".......YY....YY.",
	".......YY.......",
	".......YY.......",
	".....YY.........",
	".....YY.........",
	"................",
	"................",
	"................",
	"................",
	"...YY....YYYY...",
	"...YY....YYYY...",
	"...YY..YY.......",
	"...YY..YY.......",
	".....YYYYYY.....",
	".....YYYYYY.....",
	".......YY..YY...",
	".......YY..YY...",
	"...YYYY....YY...",
	"...YYYY....YY...",
	"................",
	"................",
	"................",
	"................",
	"...YY...........",
	"...YY...........",
	"...YY......YYYY.",
	"...YY......YYYY.",
	".....YY..YY.....",
	".....YY..YY.....",
	".......YY.......",
	".......YY.......",
	".....YY..YY.....",
	".....YY..YY.....",
	".YYYY......YY...",
	".YYYY......YY...",
	"...........YY...",
	"...........YY...",
	"................",
};
