/* XPM */

static char	*ghost-temp[] = {
	"196 64 7 1",
	". c None",
	"W c #FFFFFF",
	"B c #0000FF",
	"R c #FF0000",
	"P c #FF00FF",
	"O c #FF8000",
	"C c #00FFFF",
	"....................................................................................................................................................................................................",
	"....................................................................................................................................................................................................",
	"............RRRRRRRR........................PPPPPPPP........................OOOOOOOO........................CCCCCCCC........................BBBBBBBB................................................",
	"............RRRRRRRR........................PPPPPPPP........................OOOOOOOO........................CCCCCCCC........................BBBBBBBB................................................",
	"........RRRRRRRRRRRRRRRR................PPPPPPPPPPPPPPPP................OOOOOOOOOOOOOOOO................CCCCCCCCCCCCCCCC................BBBBBBBBBBBBBBBB............................................",
	"........RRRRRRRRRRRRRRRR................PPPPPPPPPPPPPPPP................OOOOOOOOOOOOOOOO................CCCCCCCCCCCCCCCC................BBBBBBBBBBBBBBBB............................................",
	"......RRRRRRRRRRRRRRRRRRRR............PPPPPPPPPPPPPPPPPPPP............OOOOOOOOOOOOOOOOOOOO............CCCCCCCCCCCCCCCCCCCC............BBBBBBBBBBBBBBBBBBBB..........................................",
	"......RRRRRRRRRRRRRRRRRRRR............PPPPPPPPPPPPPPPPPPPP............OOOOOOOOOOOOOOOOOOOO............CCCCCCCCCCCCCCCCCCCC............BBBBBBBBBBBBBBBBBBBB..........................................",
	"....RRRRWWWWRRRRRRRRWWWWRRRR........PPPPWWWWPPPPPPPPWWWWPPPP........OOOOWWWWOOOOOOOOWWWWOOOO........CCCCWWWWCCCCCCCCWWWWCCCC........BBBBBBBBBBBBBBBBBBBBBBBB............WWWW............WWWW........",
	"....RRRRWWWWRRRRRRRRWWWWRRRR........PPPPWWWWPPPPPPPPWWWWPPPP........OOOOWWWWOOOOOOOOWWWWOOOO........CCCCWWWWCCCCCCCCWWWWCCCC........BBBBBBBBBBBBBBBBBBBBBBBB............WWWW............WWWW........",
	"....RRWWBBBBWWRRRRWWBBBBWWRR........PPWWBBBBWWPPPPWWBBBBWWPP........OOWWBBBBWWOOOOWWBBBBWWOO........CCWWBBBBWWCCCCWWBBBBWWCC........BBBBWWWWBBBBBBBBWWWWBBBB..........WWBBBBWW........WWBBBBWW......",
	"....RRWWBBBBWWRRRRWWBBBBWWRR........PPWWBBBBWWPPPPWWBBBBWWPP........OOWWBBBBWWOOOOWWBBBBWWOO........CCWWBBBBWWCCCCWWBBBBWWCC........BBBBWWWWBBBBBBBBWWWWBBBB..........WWBBBBWW........WWBBBBWW......",
	"..RRRRWWBBBBWWRRRRWWBBBBWWRRRR....PPPPWWBBBBWWPPPPWWBBBBWWPPPP....OOOOWWBBBBWWOOOOWWBBBBWWOOOO....CCCCWWBBBBWWCCCCWWBBBBWWCCCC....BBBBBBWWWWBBBBBBBBWWWWBBBBBB........WWBBBBWW........WWBBBBWW......",
	"..RRRRWWBBBBWWRRRRWWBBBBWWRRRR....PPPPWWBBBBWWPPPPWWBBBBWWPPPP....OOOOWWBBBBWWOOOOWWBBBBWWOOOO....CCCCWWBBBBWWCCCCWWBBBBWWCCCC....BBBBBBWWWWBBBBBBBBWWWWBBBBBB........WWBBBBWW........WWBBBBWW......",
	"..RRRRRRWWWWRRRRRRRRWWWWRRRRRR....PPPPPPWWWWPPPPPPPPWWWWPPPPPP....OOOOOOWWWWOOOOOOOOWWWWOOOOOO....CCCCCCWWWWCCCCCCCCWWWWCCCCCC....BBBBBBBBBBBBBBBBBBBBBBBBBBBB..........WWWW............WWWW........",
	"..RRRRRRWWWWRRRRRRRRWWWWRRRRRR....PPPPPPWWWWPPPPPPPPWWWWPPPPPP....OOOOOOWWWWOOOOOOOOWWWWOOOOOO....CCCCCCWWWWCCCCCCCCWWWWCCCCCC....BBBBBBBBBBBBBBBBBBBBBBBBBBBB..........WWWW............WWWW........",
	"..RRRRRRRRRRRRRRRRRRRRRRRRRRRR....PPPPPPPPPPPPPPPPPPPPPPPPPPPP....OOOOOOOOOOOOOOOOOOOOOOOOOOOO....CCCCCCCCCCCCCCCCCCCCCCCCCCCC....BBBBBBBBBBBBBBBBBBBBBBBBBBBB......................................",
	"..RRRRRRRRRRRRRRRRRRRRRRRRRRRR....PPPPPPPPPPPPPPPPPPPPPPPPPPPP....OOOOOOOOOOOOOOOOOOOOOOOOOOOO....CCCCCCCCCCCCCCCCCCCCCCCCCCCC....BBBBBBBBBBBBBBBBBBBBBBBBBBBB......................................",
	"..RRRRRRRRRRRRRRRRRRRRRRRRRRRR....PPPPPPPPPPPPPPPPPPPPPPPPPPPP....OOOOOOOOOOOOOOOOOOOOOOOOOOOO....CCCCCCCCCCCCCCCCCCCCCCCCCCCC....BBBBBBBBBBBBBBBBBBBBBBBBBBBB......................................",
	"..RRRRRRRRRRRRRRRRRRRRRRRRRRRR....PPPPPPPPPPPPPPPPPPPPPPPPPPPP....OOOOOOOOOOOOOOOOOOOOOOOOOOOO....CCCCCCCCCCCCCCCCCCCCCCCCCCCC....BBBBBBBBBBBBBBBBBBBBBBBBBBBB......................................",
	"..RRRRRRRRRRRRRRRRRRRRRRRRRRRR....PPPPPPPPPPPPPPPPPPPPPPPPPPPP....OOOOOOOOOOOOOOOOOOOOOOOOOOOO....CCCCCCCCCCCCCCCCCCCCCCCCCCCC....BBBBWWWWBBBBWWWWBBBBWWWWBBBB......................................",
	"..RRRRRRRRRRRRRRRRRRRRRRRRRRRR....PPPPPPPPPPPPPPPPPPPPPPPPPPPP....OOOOOOOOOOOOOOOOOOOOOOOOOOOO....CCCCCCCCCCCCCCCCCCCCCCCCCCCC....BBBBWWWWBBBBWWWWBBBBWWWWBBBB......................................",
	"..RRRRRRRRRRRRRRRRRRRRRRRRRRRR....PPPPPPPPPPPPPPPPPPPPPPPPPPPP....OOOOOOOOOOOOOOOOOOOOOOOOOOOO....CCCCCCCCCCCCCCCCCCCCCCCCCCCC....BBWWBBBBWWWWBBBBWWWWBBBBWWBB......................................",
	"..RRRRRRRRRRRRRRRRRRRRRRRRRRRR....PPPPPPPPPPPPPPPPPPPPPPPPPPPP....OOOOOOOOOOOOOOOOOOOOOOOOOOOO....CCCCCCCCCCCCCCCCCCCCCCCCCCCC....BBWWBBBBWWWWBBBBWWWWBBBBWWBB......................................",
	"..RRRRRRRRRRRRRRRRRRRRRRRRRRRR....PPPPPPPPPPPPPPPPPPPPPPPPPPPP....OOOOOOOOOOOOOOOOOOOOOOOOOOOO....CCCCCCCCCCCCCCCCCCCCCCCCCCCC....BBBBBBBBBBBBBBBBBBBBBBBBBBBB......................................",
	"..RRRRRRRRRRRRRRRRRRRRRRRRRRRR....PPPPPPPPPPPPPPPPPPPPPPPPPPPP....OOOOOOOOOOOOOOOOOOOOOOOOOOOO....CCCCCCCCCCCCCCCCCCCCCCCCCCCC....BBBBBBBBBBBBBBBBBBBBBBBBBBBB......................................",
	"..RRRR..RRRRRR....RRRRRR..RRRR....PPPP..PPPPPP....PPPPPP..PPPP....OOOO..OOOOOO....OOOOOO..OOOO....CCCC..CCCCCC....CCCCCC..CCCC....BBBB..BBBBBB....BBBBBB..BBBB......................................",
	"..RRRR..RRRRRR....RRRRRR..RRRR....PPPP..PPPPPP....PPPPPP..PPPP....OOOO..OOOOOO....OOOOOO..OOOO....CCCC..CCCCCC....CCCCCC..CCCC....BBBB..BBBBBB....BBBBBB..BBBB......................................",
	"..RR......RRRR....RRRR......RR....PP......PPPP....PPPP......PP....OO......OOOO....OOOO......OO....CC......CCCC....CCCC......CC....BB......BBBB....BBBB......BB......................................",
	"..RR......RRRR....RRRR......RR....PP......PPPP....PPPP......PP....OO......OOOO....OOOO......OO....CC......CCCC....CCCC......CC....BB......BBBB....BBBB......BB......................................",
	"....................................................................................................................................................................................................",
	"....................................................................................................................................................................................................",
	"....................................................................................................................................................................................................",
	"....................................................................................................................................................................................................",
	"............RRRRRRRR........................PPPPPPPP........................OOOOOOOO........................CCCCCCCC........................BBBBBBBB................................................",
	"............RRRRRRRR........................PPPPPPPP........................OOOOOOOO........................CCCCCCCC........................BBBBBBBB................................................",
	"........RRRRRRRRRRRRRRRR................PPPPPPPPPPPPPPPP................OOOOOOOOOOOOOOOO................CCCCCCCCCCCCCCCC................BBBBBBBBBBBBBBBB............................................",
	"........RRRRRRRRRRRRRRRR................PPPPPPPPPPPPPPPP................OOOOOOOOOOOOOOOO................CCCCCCCCCCCCCCCC................BBBBBBBBBBBBBBBB............................................",
	"......RRRRRRRRRRRRRRRRRRRR............PPPPPPPPPPPPPPPPPPPP............OOOOOOOOOOOOOOOOOOOO............CCCCCCCCCCCCCCCCCCCC............BBBBBBBBBBBBBBBBBBBB..........................................",
	"......RRRRRRRRRRRRRRRRRRRR............PPPPPPPPPPPPPPPPPPPP............OOOOOOOOOOOOOOOOOOOO............CCCCCCCCCCCCCCCCCCCC............BBBBBBBBBBBBBBBBBBBB..........................................",
	"....RRRRWWWWRRRRRRRRWWWWRRRR........PPPPWWWWPPPPPPPPWWWWPPPP........OOOOWWWWOOOOOOOOWWWWOOOO........CCCCWWWWCCCCCCCCWWWWCCCC........BBBBBBBBBBBBBBBBBBBBBBBB............WWWW............WWWW........",
	"....RRRRWWWWRRRRRRRRWWWWRRRR........PPPPWWWWPPPPPPPPWWWWPPPP........OOOOWWWWOOOOOOOOWWWWOOOO........CCCCWWWWCCCCCCCCWWWWCCCC........BBBBBBBBBBBBBBBBBBBBBBBB............WWWW............WWWW........",
	"....RRWWBBBBWWRRRRWWBBBBWWRR........PPWWBBBBWWPPPPWWBBBBWWPP........OOWWBBBBWWOOOOWWBBBBWWOO........CCWWBBBBWWCCCCWWBBBBWWCC........BBBBWWWWBBBBBBBBWWWWBBBB..........WWBBBBWW........WWBBBBWW......",
	"....RRWWBBBBWWRRRRWWBBBBWWRR........PPWWBBBBWWPPPPWWBBBBWWPP........OOWWBBBBWWOOOOWWBBBBWWOO........CCWWBBBBWWCCCCWWBBBBWWCC........BBBBWWWWBBBBBBBBWWWWBBBB..........WWBBBBWW........WWBBBBWW......",
	"..RRRRWWBBBBWWRRRRWWBBBBWWRRRR....PPPPWWBBBBWWPPPPWWBBBBWWPPPP....OOOOWWBBBBWWOOOOWWBBBBWWOOOO....CCCCWWBBBBWWCCCCWWBBBBWWCCCC....BBBBBBWWWWBBBBBBBBWWWWBBBBBB........WWBBBBWW........WWBBBBWW......",
	"..RRRRWWBBBBWWRRRRWWBBBBWWRRRR....PPPPWWBBBBWWPPPPWWBBBBWWPPPP....OOOOWWBBBBWWOOOOWWBBBBWWOOOO....CCCCWWBBBBWWCCCCWWBBBBWWCCCC....BBBBBBWWWWBBBBBBBBWWWWBBBBBB........WWBBBBWW........WWBBBBWW......",
	"..RRRRRRWWWWRRRRRRRRWWWWRRRRRR....PPPPPPWWWWPPPPPPPPWWWWPPPPPP....OOOOOOWWWWOOOOOOOOWWWWOOOOOO....CCCCCCWWWWCCCCCCCCWWWWCCCCCC....BBBBBBBBBBBBBBBBBBBBBBBBBBBB..........WWWW............WWWW........",
	"..RRRRRRWWWWRRRRRRRRWWWWRRRRRR....PPPPPPWWWWPPPPPPPPWWWWPPPPPP....OOOOOOWWWWOOOOOOOOWWWWOOOOOO....CCCCCCWWWWCCCCCCCCWWWWCCCCCC....BBBBBBBBBBBBBBBBBBBBBBBBBBBB..........WWWW............WWWW........",
	"..RRRRRRRRRRRRRRRRRRRRRRRRRRRR....PPPPPPPPPPPPPPPPPPPPPPPPPPPP....OOOOOOOOOOOOOOOOOOOOOOOOOOOO....CCCCCCCCCCCCCCCCCCCCCCCCCCCC....BBBBBBBBBBBBBBBBBBBBBBBBBBBB......................................",
	"..RRRRRRRRRRRRRRRRRRRRRRRRRRRR....PPPPPPPPPPPPPPPPPPPPPPPPPPPP....OOOOOOOOOOOOOOOOOOOOOOOOOOOO....CCCCCCCCCCCCCCCCCCCCCCCCCCCC....BBBBBBBBBBBBBBBBBBBBBBBBBBBB......................................",
	"..RRRRRRRRRRRRRRRRRRRRRRRRRRRR....PPPPPPPPPPPPPPPPPPPPPPPPPPPP....OOOOOOOOOOOOOOOOOOOOOOOOOOOO....CCCCCCCCCCCCCCCCCCCCCCCCCCCC....BBBBBBBBBBBBBBBBBBBBBBBBBBBB......................................",
	"..RRRRRRRRRRRRRRRRRRRRRRRRRRRR....PPPPPPPPPPPPPPPPPPPPPPPPPPPP....OOOOOOOOOOOOOOOOOOOOOOOOOOOO....CCCCCCCCCCCCCCCCCCCCCCCCCCCC....BBBBBBBBBBBBBBBBBBBBBBBBBBBB......................................",
	"..RRRRRRRRRRRRRRRRRRRRRRRRRRRR....PPPPPPPPPPPPPPPPPPPPPPPPPPPP....OOOOOOOOOOOOOOOOOOOOOOOOOOOO....CCCCCCCCCCCCCCCCCCCCCCCCCCCC....BBBBWWWWBBBBWWWWBBBBWWWWBBBB......................................",
	"..RRRRRRRRRRRRRRRRRRRRRRRRRRRR....PPPPPPPPPPPPPPPPPPPPPPPPPPPP....OOOOOOOOOOOOOOOOOOOOOOOOOOOO....CCCCCCCCCCCCCCCCCCCCCCCCCCCC....BBBBWWWWBBBBWWWWBBBBWWWWBBBB......................................",
	"..RRRRRRRRRRRRRRRRRRRRRRRRRRRR....PPPPPPPPPPPPPPPPPPPPPPPPPPPP....OOOOOOOOOOOOOOOOOOOOOOOOOOOO....CCCCCCCCCCCCCCCCCCCCCCCCCCCC....BBWWBBBBWWWWBBBBWWWWBBBBWWBB......................................",
	"..RRRRRRRRRRRRRRRRRRRRRRRRRRRR....PPPPPPPPPPPPPPPPPPPPPPPPPPPP....OOOOOOOOOOOOOOOOOOOOOOOOOOOO....CCCCCCCCCCCCCCCCCCCCCCCCCCCC....BBWWBBBBWWWWBBBBWWWWBBBBWWBB......................................",
	"..RRRRRRRRRRRRRRRRRRRRRRRRRRRR....PPPPPPPPPPPPPPPPPPPPPPPPPPPP....OOOOOOOOOOOOOOOOOOOOOOOOOOOO....CCCCCCCCCCCCCCCCCCCCCCCCCCCC....BBBBBBBBBBBBBBBBBBBBBBBBBBBB......................................",
	"..RRRRRRRRRRRRRRRRRRRRRRRRRRRR....PPPPPPPPPPPPPPPPPPPPPPPPPPPP....OOOOOOOOOOOOOOOOOOOOOOOOOOOO....CCCCCCCCCCCCCCCCCCCCCCCCCCCC....BBBBBBBBBBBBBBBBBBBBBBBBBBBB......................................",
	"..RRRRRRRR..RRRRRRRR..RRRRRRRR....PPPPPPPP..PPPPPPPP..PPPPPPPP....OOOOOOOO..OOOOOOOO..OOOOOOOO....CCCCCCCC..CCCCCCCC..CCCCCCCC....BBBBBBBB..BBBBBBBB..BBBBBBBB......................................",
	"..RRRRRRRR..RRRRRRRR..RRRRRRRR....PPPPPPPP..PPPPPPPP..PPPPPPPP....OOOOOOOO..OOOOOOOO..OOOOOOOO....CCCCCCCC..CCCCCCCC..CCCCCCCC....BBBBBBBB..BBBBBBBB..BBBBBBBB......................................",
	"....RRRR......RRRR......RRRR........PPPP......PPPP......PPPP........OOOO......OOOO......OOOO........CCCC......CCCC......CCCC........BBBB......BBBB......BBBB........................................",
	"....RRRR......RRRR......RRRR........PPPP......PPPP......PPPP........OOOO......OOOO......OOOO........CCCC......CCCC......CCCC........BBBB......BBBB......BBBB........................................",
	"....................................................................................................................................................................................................",
	"....................................................................................................................................................................................................",
};
