/* XPM */

static char	*pacman_dead[] = {
	"32 320 2 1",
	". c None",
	"Y c #FFFF00",
	"................................",
	"................................",
	"............YYYYYYYY............",
	"............YYYYYYYY............",
	"........YYYYYYYYYYYYYYYY........",
	"........YYYYYYYYYYYYYYYY........",
	"......YYYYYYYYYYYYYYYYYYYY......",
	"......YYYYYYYYYYYYYYYYYYYY......",
	"....YYYYYYYYYYYYYYYYYYYYYYYY....",
	"....YYYYYYYYYYYYYYYYYYYYYYYY....",
	"....YYYYYYYYYYYYYYYYYYYYYYYY....",
	"....YYYYYYYYYYYYYYYYYYYYYYYY....",
	"..YYYYYYYYYYYYYYYYYYYYYYYYYYYY..",
	"..YYYYYYYYYYYYYYYYYYYYYYYYYYYY..",
	"..YYYYYYYYYYYYYYYYYYYYYYYYYYYY..",
	"..YYYYYYYYYYYYYYYYYYYYYYYYYYYY..",
	"..YYYYYYYYYYYYYYYYYYYYYYYYYYYY..",
	"..YYYYYYYYYYYYYYYYYYYYYYYYYYYY..",
	"..YYYYYYYYYYYYYYYYYYYYYYYYYYYY..",
	"..YYYYYYYYYYYYYYYYYYYYYYYYYYYY..",
	"....YYYYYYYYYYYYYYYYYYYYYYYY....",
	"....YYYYYYYYYYYYYYYYYYYYYYYY....",
	"....YYYYYYYYYYYYYYYYYYYYYYYY....",
	"....YYYYYYYYYYYYYYYYYYYYYYYY....",
	"......YYYYYYYYYYYYYYYYYYYY......",
	"......YYYYYYYYYYYYYYYYYYYY......",
	"........YYYYYYYYYYYYYYYY........",
	"........YYYYYYYYYYYYYYYY........",
	"............YYYYYYYY............",
	"............YYYYYYYY............",
	"................................",
	"................................",
	"................................",
	"................................",
	"................................",
	"................................",
	"........YYY..........YYY........",
	"........YYY..........YYY........",
	"......YYYYY..........YYYYY......",
	"......YYYYY..........YYYYY......",
	"....YYYYYYYYY......YYYYYYYYY....",
	"....YYYYYYYYY......YYYYYYYYY....",
	"....YYYYYYYYY......YYYYYYYYY....",
	"....YYYYYYYYY......YYYYYYYYY....",
	"..YYYYYYYYYYYYY..YYYYYYYYYYYYY..",
	"..YYYYYYYYYYYYY..YYYYYYYYYYYYY..",
	"..YYYYYYYYYYYYY..YYYYYYYYYYYYY..",
	"..YYYYYYYYYYYYY..YYYYYYYYYYYYY..",
	"..YYYYYYYYYYYYYYYYYYYYYYYYYYYY..",
	"..YYYYYYYYYYYYYYYYYYYYYYYYYYYY..",
	"..YYYYYYYYYYYYYYYYYYYYYYYYYYYY..",
	"..YYYYYYYYYYYYYYYYYYYYYYYYYYYY..",
	"....YYYYYYYYYYYYYYYYYYYYYYYY....",
	"....YYYYYYYYYYYYYYYYYYYYYYYY....",
	"....YYYYYYYYYYYYYYYYYYYYYYYY....",
	"....YYYYYYYYYYYYYYYYYYYYYYYY....",
	"......YYYYYYYYYYYYYYYYYYYY......",
	"......YYYYYYYYYYYYYYYYYYYY......",
	"........YYYYYYYYYYYYYYYY........",
	"........YYYYYYYYYYYYYYYY........",
	"............YYYYYYYY............",
	"............YYYYYYYY............",
	"................................",
	"................................",
	"................................",
	"................................",
	"................................",
	"................................",
	"................................",
	"................................",
	"....YYY..................YYY....",
	"....YYY..................YYY....",
	"....YYYYY..............YYYYY....",
	"....YYYYY..............YYYYY....",
	"..YYYYYYYYY..........YYYYYYYYY..",
	"..YYYYYYYYY..........YYYYYYYYY..",
	"..YYYYYYYYYYY......YYYYYYYYYYY..",
	"..YYYYYYYYYYY......YYYYYYYYYYY..",
	"..YYYYYYYYYYYYY..YYYYYYYYYYYYY..",
	"..YYYYYYYYYYYYY..YYYYYYYYYYYYY..",
	"..YYYYYYYYYYYYYYYYYYYYYYYYYYYY..",
	"..YYYYYYYYYYYYYYYYYYYYYYYYYYYY..",
	"..YYYYYYYYYYYYYYYYYYYYYYYYYYYY..",
	"..YYYYYYYYYYYYYYYYYYYYYYYYYYYY..",
	"....YYYYYYYYYYYYYYYYYYYYYYYY....",
	"....YYYYYYYYYYYYYYYYYYYYYYYY....",
	"....YYYYYYYYYYYYYYYYYYYYYYYY....",
	"....YYYYYYYYYYYYYYYYYYYYYYYY....",
	"......YYYYYYYYYYYYYYYYYYYY......",
	"......YYYYYYYYYYYYYYYYYYYY......",
	"........YYYYYYYYYYYYYYYY........",
	"........YYYYYYYYYYYYYYYY........",
	"............YYYYYYYY............",
	"............YYYYYYYY............",
	"................................",
	"................................",
	"................................",
	"................................",
	"................................",
	"................................",
	"................................",
	"................................",
	"................................",
	"................................",
	"................................",
	"................................",
	"..YYYY....................YYYY..",
	"..YYYY....................YYYY..",
	"..YYYYYYYY............YYYYYYYY..",
	"..YYYYYYYY............YYYYYYYY..",
	"..YYYYYYYYYYYY....YYYYYYYYYYYY..",
	"..YYYYYYYYYYYY....YYYYYYYYYYYY..",
	"..YYYYYYYYYYYYYYYYYYYYYYYYYYYY..",
	"..YYYYYYYYYYYYYYYYYYYYYYYYYYYY..",
	"..YYYYYYYYYYYYYYYYYYYYYYYYYYYY..",
	"..YYYYYYYYYYYYYYYYYYYYYYYYYYYY..",
	"....YYYYYYYYYYYYYYYYYYYYYYYY....",
	"....YYYYYYYYYYYYYYYYYYYYYYYY....",
	"....YYYYYYYYYYYYYYYYYYYYYYYY....",
	"....YYYYYYYYYYYYYYYYYYYYYYYY....",
	"......YYYYYYYYYYYYYYYYYYYY......",
	"......YYYYYYYYYYYYYYYYYYYY......",
	"........YYYYYYYYYYYYYYYY........",
	"........YYYYYYYYYYYYYYYY........",
	"............YYYYYYYY............",
	"............YYYYYYYY............",
	"................................",
	"................................",
	"................................",
	"................................",
	"................................",
	"................................",
	"................................",
	"................................",
	"................................",
	"................................",
	"................................",
	"................................",
	"................................",
	"................................",
	"................................",
	"................................",
	"................................",
	"..YYYYYYYYYYYYYYYYYYYYYYYYYYYY..",
	"..YYYYYYYYYYYYYYYYYYYYYYYYYYYY..",
	"..YYYYYYYYYYYYYYYYYYYYYYYYYYYY..",
	"..YYYYYYYYYYYYYYYYYYYYYYYYYYYY..",
	"..YYYYYYYYYYYYYYYYYYYYYYYYYYYY..",
	"....YYYYYYYYYYYYYYYYYYYYYYYY....",
	"....YYYYYYYYYYYYYYYYYYYYYYYY....",
	"....YYYYYYYYYYYYYYYYYYYYYYYY....",
	"....YYYYYYYYYYYYYYYYYYYYYYYY....",
	"......YYYYYYYYYYYYYYYYYYYY......",
	"......YYYYYYYYYYYYYYYYYYYY......",
	"........YYYYYYYYYYYYYYYY........",
	"........YYYYYYYYYYYYYYYY........",
	"............YYYYYYYY............",
	"............YYYYYYYY............",
	"................................",
	"................................",
	"................................",
	"................................",
	"................................",
	"................................",
	"................................",
	"................................",
	"................................",
	"................................",
	"................................",
	"................................",
	"................................",
	"................................",
	"................................",
	"................................",
	"................................",
	"................................",
	"..............YYYY..............",
	"..............YYYY..............",
	"..........YYYYYYYYYYYY..........",
	"..........YYYYYYYYYYYY..........",
	"......YYYYYYYYYYYYYYYYYYYY......",
	"......YYYYYYYYYYYYYYYYYYYY......",
	"......YYYYYYYYYYYYYYYYYYYY......",
	"......YYYYYYYYYYYYYYYYYYYY......",
	"......YYYYYYYYYYYYYYYYYYYY......",
	"......YYYYYYYYYYYYYYYYYYYY......",
	"........YYYYYYYYYYYYYYYY........",
	"........YYYYYYYYYYYYYYYY........",
	"..........YYYYY..YYYYY..........",
	"..........YYYYY..YYYYY..........",
	"................................",
	"................................",
	"................................",
	"................................",
	"................................",
	"................................",
	"................................",
	"................................",
	"................................",
	"................................",
	"................................",
	"................................",
	"................................",
	"................................",
	"................................",
	"................................",
	"................................",
	"................................",
	"...............YY...............",
	"...............YY...............",
	".............YYYYYY.............",
	".............YYYYYY.............",
	"...........YYYYYYYYYY...........",
	"...........YYYYYYYYYY...........",
	".........YYYYYYYYYYYYYY.........",
	".........YYYYYYYYYYYYYY.........",
	".......YYYYYYYYYYYYYYYYYY.......",
	".......YYYYYYYYYYYYYYYYYY.......",
	".........YYYYYYYYYYYYYY.........",
	".........YYYYYYYYYYYYYY.........",
	"...........YYYY..YYYY...........",
	"...........YYYY..YYYY...........",
	"................................",
	"................................",
	"................................",
	"................................",
	"................................",
	"................................",
	"................................",
	"................................",
	"................................",
	"................................",
	"................................",
	"................................",
	"................................",
	"................................",
	"................................",
	"................................",
	"................................",
	"................................",
	"...............YY...............",
	"...............YY...............",
	"...............YY...............",
	"...............YY...............",
	".............YYYYYY.............",
	".............YYYYYY.............",
	".............YYYYYY.............",
	".............YYYYYY.............",
	"...........YYYYYYYYYY...........",
	"...........YYYYYYYYYY...........",
	".........YYYYYYYYYYYYYY.........",
	".........YYYYYYYYYYYYYY.........",
	"...........YYYY..YYYY...........",
	"...........YYYY..YYYY...........",
	"................................",
	"................................",
	"................................",
	"................................",
	"................................",
	"................................",
	"................................",
	"................................",
	"................................",
	"................................",
	"................................",
	"................................",
	"................................",
	"................................",
	"................................",
	"................................",
	"................................",
	"................................",
	"...............YY...............",
	"...............YY...............",
	"...............YY...............",
	"...............YY...............",
	"...............YY...............",
	"...............YY...............",
	"...............YY...............",
	"...............YY...............",
	"...............YY...............",
	"...............YY...............",
	"...............YY...............",
	"...............YY...............",
	"...............YY...............",
	"...............YY...............",
	"................................",
	"................................",
	"................................",
	"................................",
	"................................",
	"................................",
	"................................",
	"................................",
	"................................",
	"................................",
	"................................",
	"................................",
	"................................",
	"................................",
	"................................",
	"................................",
	"................................",
	"................................",
	"................................",
	"................................",
	"................................",
	"................................",
	"................................",
	"................................",
	"................................",
	"................................",
	"................................",
	"................................",
	"................................",
	"................................",
	"................................",
	"................................",
	"................................",
	"................................",
};
