/* XPM */

static char	*pacman[] = {
	"128 128 2 1",
	". c None",
	"Y c #FFFF00",
	"................................................................................................................................",
	"................................................................................................................................",
	"............YYYYYYYY........................YYYYYYYY........................YYYYYYYY........................YYYYYYYY............",
	"............YYYYYYYY........................YYYYYYYY........................YYYYYYYY........................YYYYYYYY............",
	"........YYYYYYYYYYYYYYYY................YYYYYYYYYYYYYYYY................YYYYYYYYYYYYYYYY................YYYYYYYYYYYYYYYY........",
	"........YYYYYYYYYYYYYYYY................YYYYYYYYYYYYYYYY................YYYYYYYYYYYYYYYY................YYYYYYYYYYYYYYYY........",
	"......YYYYYYYYYYYYYYYYYYYY............YYYYYYYYYYYYYYYYYYYY............YYYYYYYYYYYYYYYYYYYY............YYYYYYYYYYYYYYYYYYYY......",
	"......YYYYYYYYYYYYYYYYYYYY............YYYYYYYYYYYYYYYYYYYY............YYYYYYYYYYYYYYYYYYYY............YYYYYYYYYYYYYYYYYYYY......",
	"....YYYYYYYYYYYYYYYYYYYYYYYY........YYYYYYYYYYYYYYYYYYYYYYYY........YYYYYYYYYYYYYYYYYYYYYYYY........YYYYYYYYYYYYYYYYYYYYYYYY....",
	"....YYYYYYYYYYYYYYYYYYYYYYYY........YYYYYYYYYYYYYYYYYYYYYYYY........YYYYYYYYYYYYYYYYYYYYYYYY........YYYYYYYYYYYYYYYYYYYYYYYY....",
	"....YYYYYYYYYYYYYYYYYYYYYYYY........YYYYYYYYYYYYYYYYYYYYYYYY........YYYYYYYYYYYYYYYYYYYYYYYY........YYYYYYYYYYYYYYYYYYYYYYYY....",
	"....YYYYYYYYYYYYYYYYYYYYYYYY........YYYYYYYYYYYYYYYYYYYYYYYY........YYYYYYYYYYYYYYYYYYYYYYYY........YYYYYYYYYYYYYYYYYYYYYYYY....",
	"..YYYYYYYYYYYYYYYYYYYYYYYYYYYY....YYYYYYYYYYYYYYYYYYYYYYYYYYYY....YYYYYYYYYYYYYYYYYYYYYYYYYYYY....YYYYYYYYYYYYYYYYYYYYYYYYYYYY..",
	"..YYYYYYYYYYYYYYYYYYYYYYYYYYYY....YYYYYYYYYYYYYYYYYYYYYYYYYYYY....YYYYYYYYYYYYYYYYYYYYYYYYYYYY....YYYYYYYYYYYYYYYYYYYYYYYYYYYY..",
	"..YYYYYYYYYYYYYYYYYYYYYYYYYYYY....YYYYYYYYYYYYYYYYYYYYYYYYYYYY....YYYYYYYYYYYYYYYYYYYYYYYYYYYY....YYYYYYYYYYYYYYYYYYYYYYYYYYYY..",
	"..YYYYYYYYYYYYYYYYYYYYYYYYYYYY....YYYYYYYYYYYYYYYYYYYYYYYYYYYY....YYYYYYYYYYYYYYYYYYYYYYYYYYYY....YYYYYYYYYYYYYYYYYYYYYYYYYYYY..",
	"..YYYYYYYYYYYYYYYYYYYYYYYYYYYY....YYYYYYYYYYYYYYYYYYYYYYYYYYYY....YYYYYYYYYYYYYYYYYYYYYYYYYYYY....YYYYYYYYYYYYYYYYYYYYYYYYYYYY..",
	"..YYYYYYYYYYYYYYYYYYYYYYYYYYYY....YYYYYYYYYYYYYYYYYYYYYYYYYYYY....YYYYYYYYYYYYYYYYYYYYYYYYYYYY....YYYYYYYYYYYYYYYYYYYYYYYYYYYY..",
	"..YYYYYYYYYYYYYYYYYYYYYYYYYYYY....YYYYYYYYYYYYYYYYYYYYYYYYYYYY....YYYYYYYYYYYYYYYYYYYYYYYYYYYY....YYYYYYYYYYYYYYYYYYYYYYYYYYYY..",
	"..YYYYYYYYYYYYYYYYYYYYYYYYYYYY....YYYYYYYYYYYYYYYYYYYYYYYYYYYY....YYYYYYYYYYYYYYYYYYYYYYYYYYYY....YYYYYYYYYYYYYYYYYYYYYYYYYYYY..",
	"....YYYYYYYYYYYYYYYYYYYYYYYY........YYYYYYYYYYYYYYYYYYYYYYYY........YYYYYYYYYYYYYYYYYYYYYYYY........YYYYYYYYYYYYYYYYYYYYYYYY....",
	"....YYYYYYYYYYYYYYYYYYYYYYYY........YYYYYYYYYYYYYYYYYYYYYYYY........YYYYYYYYYYYYYYYYYYYYYYYY........YYYYYYYYYYYYYYYYYYYYYYYY....",
	"....YYYYYYYYYYYYYYYYYYYYYYYY........YYYYYYYYYYYYYYYYYYYYYYYY........YYYYYYYYYYYYYYYYYYYYYYYY........YYYYYYYYYYYYYYYYYYYYYYYY....",
	"....YYYYYYYYYYYYYYYYYYYYYYYY........YYYYYYYYYYYYYYYYYYYYYYYY........YYYYYYYYYYYYYYYYYYYYYYYY........YYYYYYYYYYYYYYYYYYYYYYYY....",
	"......YYYYYYYYYYYYYYYYYYYY............YYYYYYYYYYYYYYYYYYYY............YYYYYYYYYYYYYYYYYYYY............YYYYYYYYYYYYYYYYYYYY......",
	"......YYYYYYYYYYYYYYYYYYYY............YYYYYYYYYYYYYYYYYYYY............YYYYYYYYYYYYYYYYYYYY............YYYYYYYYYYYYYYYYYYYY......",
	"........YYYYYYYYYYYYYYYY................YYYYYYYYYYYYYYYY................YYYYYYYYYYYYYYYY................YYYYYYYYYYYYYYYY........",
	"........YYYYYYYYYYYYYYYY................YYYYYYYYYYYYYYYY................YYYYYYYYYYYYYYYY................YYYYYYYYYYYYYYYY........",
	"............YYYYYYYY........................YYYYYYYY........................YYYYYYYY........................YYYYYYYY............",
	"............YYYYYYYY........................YYYYYYYY........................YYYYYYYY........................YYYYYYYY............",
	"................................................................................................................................",
	"................................................................................................................................",
	"................................................................................................................................",
	"................................................................................................................................",
	"............YYYYYYYY........................YYYYYYYY........................................................YYYYYYYY............",
	"............YYYYYYYY........................YYYYYYYY........................................................YYYYYYYY............",
	"........YYYYYYYYYYYYYYYY................YYYYYYYYYYYYYYYY................YYY..........YYY................YYYYYYYYYYYYYYYY........",
	"........YYYYYYYYYYYYYYYY................YYYYYYYYYYYYYYYY................YYY..........YYY................YYYYYYYYYYYYYYYY........",
	"......YYYYYYYYYYYYYYYYYYYY............YYYYYYYYYYYYYYYYYYYY............YYYYY..........YYYYY............YYYYYYYYYYYYYYYYYYYY......",
	"......YYYYYYYYYYYYYYYYYYYY............YYYYYYYYYYYYYYYYYYYY............YYYYY..........YYYYY............YYYYYYYYYYYYYYYYYYYY......",
	"....YYYYYYYYYYYYYYYYYYYYYYYY........YYYYYYYYYYYYYYYYYYYYYYYY........YYYYYYYYY......YYYYYYYYY........YYYYYYYYYYYYYYYYYYYYYYYY....",
	"....YYYYYYYYYYYYYYYYYYYYYYYY........YYYYYYYYYYYYYYYYYYYYYYYY........YYYYYYYYY......YYYYYYYYY........YYYYYYYYYYYYYYYYYYYYYYYY....",
	"....YYYYYYYYYYYYYYYYYYYYYYYY........YYYYYYYYYYYYYYYYYYYYYYYY........YYYYYYYYY......YYYYYYYYY........YYYYYYYYYYYYYYYYYYYYYYYY....",
	"....YYYYYYYYYYYYYYYYYYYY................YYYYYYYYYYYYYYYYYYYY........YYYYYYYYY......YYYYYYYYY.......YYYYYYYYYYYYYYYYYYYYYYYY.....",
	"..YYYYYYYYYYYYYYYYYYYYYY................YYYYYYYYYYYYYYYYYYYYYY....YYYYYYYYYYYYY..YYYYYYYYYYYYY....YYYYYYYYYYYYYYYYYYYYYYYYYYYY..",
	"..YYYYYYYYYYYYYYYYYY........................YYYYYYYYYYYYYYYYYY....YYYYYYYYYYYYY..YYYYYYYYYYYYY....YYYYYYYYYYYYYYYYYYYYYYYYYYYY..",
	"..YYYYYYYYYYYYYYYYYY........................YYYYYYYYYYYYYYYYYY....YYYYYYYYYYYYY..YYYYYYYYYYYYY....YYYYYYYYYYYYYYYYYYYYYYYYYYYY..",
	"..YYYYYYYYYYYYYY................................YYYYYYYYYYYYYY....YYYYYYYYYYYYY..YYYYYYYYYYYYY....YYYYYYYYYYYYYYYYYYYYYYYYYYYY..",
	"..YYYYYYYYYYYYYY................................YYYYYYYYYYYYYY....YYYYYYYYYYYYYYYYYYYYYYYYYYYY....YYYYYYYYYYYYY..YYYYYYYYYYYYY..",
	"..YYYYYYYYYYYYYYYYYY........................YYYYYYYYYYYYYYYYYY....YYYYYYYYYYYYYYYYYYYYYYYYYYYY....YYYYYYYYYYYYY..YYYYYYYYYYYYY..",
	"..YYYYYYYYYYYYYYYYYY........................YYYYYYYYYYYYYYYYYY....YYYYYYYYYYYYYYYYYYYYYYYYYYYY....YYYYYYYYYYYYY..YYYYYYYYYYYYY..",
	"..YYYYYYYYYYYYYYYYYYYYYY................YYYYYYYYYYYYYYYYYYYYYY....YYYYYYYYYYYYYYYYYYYYYYYYYYYY....YYYYYYYYYYYYY..YYYYYYYYYYYYY..",
	"....YYYYYYYYYYYYYYYYYYYY................YYYYYYYYYYYYYYYYYYYY........YYYYYYYYYYYYYYYYYYYYYYYY........YYYYYYYYY......YYYYYYYYY....",
	"....YYYYYYYYYYYYYYYYYYYYYYYY........YYYYYYYYYYYYYYYYYYYYYYYY........YYYYYYYYYYYYYYYYYYYYYYYY........YYYYYYYYY......YYYYYYYYY....",
	"....YYYYYYYYYYYYYYYYYYYYYYYY........YYYYYYYYYYYYYYYYYYYYYYYY........YYYYYYYYYYYYYYYYYYYYYYYY........YYYYYYYYY......YYYYYYYYY....",
	"....YYYYYYYYYYYYYYYYYYYYYYYY........YYYYYYYYYYYYYYYYYYYYYYYY........YYYYYYYYYYYYYYYYYYYYYYYY........YYYYYYYYY......YYYYYYYYY....",
	"......YYYYYYYYYYYYYYYYYYYY............YYYYYYYYYYYYYYYYYYYY............YYYYYYYYYYYYYYYYYYYY............YYYYY..........YYYYY......",
	"......YYYYYYYYYYYYYYYYYYYY............YYYYYYYYYYYYYYYYYYYY............YYYYYYYYYYYYYYYYYYYY............YYYYY..........YYYYY......",
	"........YYYYYYYYYYYYYYYY................YYYYYYYYYYYYYYYY................YYYYYYYYYYYYYYYY................YYY..........YYY........",
	"........YYYYYYYYYYYYYYYY................YYYYYYYYYYYYYYYY................YYYYYYYYYYYYYYYY................YYY..........YYY........",
	"............YYYYYYYY........................YYYYYYYY........................YYYYYYYY............................................",
	"............YYYYYYYY........................YYYYYYYY........................YYYYYYYY............................................",
	"................................................................................................................................",
	"................................................................................................................................",
	"................................................................................................................................",
	"................................................................................................................................",
	"............YYYYYYYYYY....................YYYYYYYYYY........................................................YYYYYYYY............",
	"............YYYYYYYYYY....................YYYYYYYYYY........................................................YYYYYYYY............",
	"........YYYYYYYYYYYYYYYYYY............YYYYYYYYYYYYYYYYYY................................................YYYYYYYYYYYYYYYY........",
	"........YYYYYYYYYYYYYYYYYY............YYYYYYYYYYYYYYYYYY................................................YYYYYYYYYYYYYYYY........",
	"......YYYYYYYYYYYYYYYYYYYY............YYYYYYYYYYYYYYYYYYYY..........YYY..................YYY..........YYYYYYYYYYYYYYYYYYYY......",
	"......YYYYYYYYYYYYYYYYYY................YYYYYYYYYYYYYYYYYY..........YYY..................YYY..........YYYYYYYYYYYYYYYYYYYY......",
	"....YYYYYYYYYYYYYYYYYYYY................YYYYYYYYYYYYYYYYYYYY........YYYYY..............YYYYY........YYYYYYYYYYYYYYYYYYYYYYYY....",
	"....YYYYYYYYYYYYYYYYYY....................YYYYYYYYYYYYYYYYYY........YYYYY..............YYYYY........YYYYYYYYYYYYYYYYYYYYYYYY....",
	"....YYYYYYYYYYYYYYYYYY....................YYYYYYYYYYYYYYYYYY......YYYYYYYYY..........YYYYYYYYY......YYYYYYYYYYYYYYYYYYYYYYYY....",
	"....YYYYYYYYYYYYYYYY........................YYYYYYYYYYYYYYYY......YYYYYYYYY..........YYYYYYYYY......YYYYYYYYYYYYYYYYYYYYYYYY....",
	"..YYYYYYYYYYYYYYYYYY........................YYYYYYYYYYYYYYYYYY....YYYYYYYYYYY......YYYYYYYYYYY....YYYYYYYYYYYYYYYYYYYYYYYYYYYY..",
	"..YYYYYYYYYYYYYYYY............................YYYYYYYYYYYYYYYY....YYYYYYYYYYY......YYYYYYYYYYY....YYYYYYYYYYYYYYYYYYYYYYYYYYYY..",
	"..YYYYYYYYYYYYYYYY............................YYYYYYYYYYYYYYYY....YYYYYYYYYYYYY..YYYYYYYYYYYYY....YYYYYYYYYYYYYYYYYYYYYYYYYYYY..",
	"..YYYYYYYYYYYYYY................................YYYYYYYYYYYYYY....YYYYYYYYYYYYY..YYYYYYYYYYYYY....YYYYYYYYYYYYYYYYYYYYYYYYYYYY..",
	"..YYYYYYYYYYYYYY................................YYYYYYYYYYYYYY....YYYYYYYYYYYYYYYYYYYYYYYYYYYY....YYYYYYYYYYYYY..YYYYYYYYYYYYY..",
	"..YYYYYYYYYYYYYYYY............................YYYYYYYYYYYYYYYY....YYYYYYYYYYYYYYYYYYYYYYYYYYYY....YYYYYYYYYYYYY..YYYYYYYYYYYYY..",
	"..YYYYYYYYYYYYYYYY............................YYYYYYYYYYYYYYYY....YYYYYYYYYYYYYYYYYYYYYYYYYYYY....YYYYYYYYYYY......YYYYYYYYYYY..",
	"..YYYYYYYYYYYYYYYYYY........................YYYYYYYYYYYYYYYYYY....YYYYYYYYYYYYYYYYYYYYYYYYYYYY....YYYYYYYYYYY......YYYYYYYYYYY..",
	"....YYYYYYYYYYYYYYYY........................YYYYYYYYYYYYYYYY........YYYYYYYYYYYYYYYYYYYYYYYY......YYYYYYYYY..........YYYYYYYYY..",
	"....YYYYYYYYYYYYYYYYYY....................YYYYYYYYYYYYYYYYYY........YYYYYYYYYYYYYYYYYYYYYYYY......YYYYYYYYY..........YYYYYYYYY..",
	"....YYYYYYYYYYYYYYYYYY....................YYYYYYYYYYYYYYYYYY........YYYYYYYYYYYYYYYYYYYYYYYY........YYYYY..............YYYYY....",
	"....YYYYYYYYYYYYYYYYYYYY................YYYYYYYYYYYYYYYYYYYY........YYYYYYYYYYYYYYYYYYYYYYYY........YYYYY..............YYYYY....",
	"......YYYYYYYYYYYYYYYYYY................YYYYYYYYYYYYYYYYYY............YYYYYYYYYYYYYYYYYYYY..........YYY..................YYY....",
	"......YYYYYYYYYYYYYYYYYYYY............YYYYYYYYYYYYYYYYYYYY............YYYYYYYYYYYYYYYYYYYY..........YYY..................YYY....",
	"........YYYYYYYYYYYYYYYYYY............YYYYYYYYYYYYYYYYYY................YYYYYYYYYYYYYYYY........................................",
	"........YYYYYYYYYYYYYYYYYY............YYYYYYYYYYYYYYYYYY................YYYYYYYYYYYYYYYY........................................",
	"............YYYYYYYYYY....................YYYYYYYYYY........................YYYYYYYY............................................",
	"............YYYYYYYYYY....................YYYYYYYYYY........................YYYYYYYY............................................",
	"................................................................................................................................",
	"................................................................................................................................",
	"................................................................................................................................",
	"................................................................................................................................",
	"............YYYYYYYY........................YYYYYYYY........................................................YYYYYYYY............",
	"............YYYYYYYY........................YYYYYYYY........................................................YYYYYYYY............",
	"........YYYYYYYYYYYYYYYY................YYYYYYYYYYYYYYYY................YYY..........YYY................YYYYYYYYYYYYYYYY........",
	"........YYYYYYYYYYYYYYYY................YYYYYYYYYYYYYYYY................YYY..........YYY................YYYYYYYYYYYYYYYY........",
	"......YYYYYYYYYYYYYYYYYYYY............YYYYYYYYYYYYYYYYYYYY............YYYYY..........YYYYY............YYYYYYYYYYYYYYYYYYYY......",
	"......YYYYYYYYYYYYYYYYYYYY............YYYYYYYYYYYYYYYYYYYY............YYYYY..........YYYYY............YYYYYYYYYYYYYYYYYYYY......",
	"....YYYYYYYYYYYYYYYYYYYYYYYY........YYYYYYYYYYYYYYYYYYYYYYYY........YYYYYYYYY......YYYYYYYYY........YYYYYYYYYYYYYYYYYYYYYYYY....",
	"....YYYYYYYYYYYYYYYYYYYYYYYY........YYYYYYYYYYYYYYYYYYYYYYYY........YYYYYYYYY......YYYYYYYYY........YYYYYYYYYYYYYYYYYYYYYYYY....",
	"....YYYYYYYYYYYYYYYYYYYYYYYY........YYYYYYYYYYYYYYYYYYYYYYYY........YYYYYYYYY......YYYYYYYYY........YYYYYYYYYYYYYYYYYYYYYYYY....",
	"....YYYYYYYYYYYYYYYYYYYY................YYYYYYYYYYYYYYYYYYYY........YYYYYYYYY......YYYYYYYYY.......YYYYYYYYYYYYYYYYYYYYYYYY.....",
	"..YYYYYYYYYYYYYYYYYYYYYY................YYYYYYYYYYYYYYYYYYYYYY....YYYYYYYYYYYYY..YYYYYYYYYYYYY....YYYYYYYYYYYYYYYYYYYYYYYYYYYY..",
	"..YYYYYYYYYYYYYYYYYY........................YYYYYYYYYYYYYYYYYY....YYYYYYYYYYYYY..YYYYYYYYYYYYY....YYYYYYYYYYYYYYYYYYYYYYYYYYYY..",
	"..YYYYYYYYYYYYYYYYYY........................YYYYYYYYYYYYYYYYYY....YYYYYYYYYYYYY..YYYYYYYYYYYYY....YYYYYYYYYYYYYYYYYYYYYYYYYYYY..",
	"..YYYYYYYYYYYYYY................................YYYYYYYYYYYYYY....YYYYYYYYYYYYY..YYYYYYYYYYYYY....YYYYYYYYYYYYYYYYYYYYYYYYYYYY..",
	"..YYYYYYYYYYYYYY................................YYYYYYYYYYYYYY....YYYYYYYYYYYYYYYYYYYYYYYYYYYY....YYYYYYYYYYYYY..YYYYYYYYYYYYY..",
	"..YYYYYYYYYYYYYYYYYY........................YYYYYYYYYYYYYYYYYY....YYYYYYYYYYYYYYYYYYYYYYYYYYYY....YYYYYYYYYYYYY..YYYYYYYYYYYYY..",
	"..YYYYYYYYYYYYYYYYYY........................YYYYYYYYYYYYYYYYYY....YYYYYYYYYYYYYYYYYYYYYYYYYYYY....YYYYYYYYYYYYY..YYYYYYYYYYYYY..",
	"..YYYYYYYYYYYYYYYYYYYYYY................YYYYYYYYYYYYYYYYYYYYYY....YYYYYYYYYYYYYYYYYYYYYYYYYYYY....YYYYYYYYYYYYY..YYYYYYYYYYYYY..",
	"....YYYYYYYYYYYYYYYYYYYY................YYYYYYYYYYYYYYYYYYYY........YYYYYYYYYYYYYYYYYYYYYYYY........YYYYYYYYY......YYYYYYYYY....",
	"....YYYYYYYYYYYYYYYYYYYYYYYY........YYYYYYYYYYYYYYYYYYYYYYYY........YYYYYYYYYYYYYYYYYYYYYYYY........YYYYYYYYY......YYYYYYYYY....",
	"....YYYYYYYYYYYYYYYYYYYYYYYY........YYYYYYYYYYYYYYYYYYYYYYYY........YYYYYYYYYYYYYYYYYYYYYYYY........YYYYYYYYY......YYYYYYYYY....",
	"....YYYYYYYYYYYYYYYYYYYYYYYY........YYYYYYYYYYYYYYYYYYYYYYYY........YYYYYYYYYYYYYYYYYYYYYYYY........YYYYYYYYY......YYYYYYYYY....",
	"......YYYYYYYYYYYYYYYYYYYY............YYYYYYYYYYYYYYYYYYYY............YYYYYYYYYYYYYYYYYYYY............YYYYY..........YYYYY......",
	"......YYYYYYYYYYYYYYYYYYYY............YYYYYYYYYYYYYYYYYYYY............YYYYYYYYYYYYYYYYYYYY............YYYYY..........YYYYY......",
	"........YYYYYYYYYYYYYYYY................YYYYYYYYYYYYYYYY................YYYYYYYYYYYYYYYY................YYY..........YYY........",
	"........YYYYYYYYYYYYYYYY................YYYYYYYYYYYYYYYY................YYYYYYYYYYYYYYYY................YYY..........YYY........",
	"............YYYYYYYY........................YYYYYYYY........................YYYYYYYY............................................",
	"............YYYYYYYY........................YYYYYYYY........................YYYYYYYY............................................",
	"................................................................................................................................",
	"................................................................................................................................",
};
