/* XPM */

static char	*pellets[] = {
	"16 32 2 1",
	". c None",
	"W c #FFFFFF",
	"................",
	"................",
	"................",
	"................",
	"................",
	".......WW.......",
	"......WWWW......",
	"......WWWW......",
	"......WWWW......",
	"......WWWW......",
	".......WW.......",
	"................",
	"................",
	"................",
	"................",
	"................",
	"................",
	"................",
	"......WWWW......",
	"......WWWW......",
	"....WWWWWWWW....",
	"....WWWWWWWW....",
	"..WWWWWWWWWWWW..",
	"..WWWWWWWWWWWW..",
	"..WWWWWWWWWWWW..",
	"..WWWWWWWWWWWW..",
	"....WWWWWWWW....",
	"....WWWWWWWW....",
	"......WWWW......",
	"......WWWW......",
	"................",
	"................",
};
