/* XPM */

static char	*walls[] = {
	"32 32 2 1",
	". c None",
	"B c #0000FF",
	"................................",
	"................................",
	"................................",
	"................................",
	"....BBBBBBBB....................",
	"....BBBBBBBB....................",
	"....BB....BB....................",
	"....BB....BB....BBBBBBBBBBBBBBBB",
	"....BB....BB....BBBBBBBBBBBBBBBB",
	"....BB....BB....................",
	"....BBBBBBBB....................",
	"....BBBBBBBB....................",
	"................................",
	"................................",
	"................................",
	"................................",
	".......BB.......................",
	".......BB.......................",
	".......BB.......................",
	".......BB.......................",
	".......BB.......................",
	".......BB.......................",
	".......BB.......................",
	".......BB.......................",
	".......BB.......................",
	".......BB.......................",
	".......BB.......................",
	".......BB.......................",
	".......BB.......................",
	".......BB.......................",
	".......BB.......................",
	".......BB.......................",
};
